<svg xmlns="http://www.w3.org/2000/svg" xmlns:xlink="http://www.w3.org/1999/xlink" width="64" zoomAndPan="magnify" viewBox="0 0 48 48" height="64" preserveAspectRatio="xMidYMid meet" version="1.2"><defs><clipPath id="34972b2645"><path d="M 2.839844 2.351562 L 45.453125 2.351562 L 45.453125 44.964844 L 2.839844 44.964844 Z M 2.839844 2.351562 "/></clipPath><clipPath id="92b7f606b4"><path d="M 17 8 L 36 8 L 36 44.964844 L 17 44.964844 Z M 17 8 "/></clipPath><clipPath id="d10659f652"><path d="M 16 7 L 37 7 L 37 44.964844 L 16 44.964844 Z M 16 7 "/></clipPath></defs><g id="7513b39c61"><g clip-rule="nonzero" clip-path="url(#34972b2645)"><path style="fill-rule:nonzero;fill:#a67d2b;fill-opacity:1;stroke-width:1;stroke-linecap:butt;stroke-linejoin:miter;stroke:#4267b2;stroke-opacity:1;stroke-miterlimit:10;" d="M 462.6917 234.607857 C 462.6917 241.887319 462.362685 249.125653 461.6224 256.363988 C 460.923243 263.602322 459.853944 270.79953 458.414502 277.955611 C 457.016188 285.070565 455.247731 292.144392 453.150259 299.094838 C 451.01166 306.045284 448.585173 312.913476 445.788544 319.617161 C 442.991914 326.361973 439.907397 332.942277 436.452737 339.358074 C 433.039204 345.77387 429.296656 351.984032 425.26622 358.029687 C 421.194657 364.116468 416.876332 369.956488 412.27012 375.549746 C 407.663907 381.184132 402.769806 386.571756 397.628943 391.712618 C 392.48808 396.853481 387.100456 401.747582 381.466071 406.353795 C 375.831686 410.960008 369.991666 415.319459 363.946011 419.349896 C 357.900357 423.380332 351.649068 427.12288 345.233271 430.577539 C 338.817475 433.991072 332.237171 437.116717 325.533486 439.872219 C 318.788674 442.668848 311.961609 445.136462 305.011162 447.233934 C 298.019589 449.331406 290.986889 451.099863 283.830809 452.539304 C 276.715855 453.937619 269.518647 455.006918 262.280313 455.747203 C 255.041978 456.44636 247.762517 456.816502 240.483055 456.816502 C 233.203594 456.816502 225.965259 456.44636 218.726925 455.747203 C 211.48859 455.006918 204.291383 453.937619 197.135302 452.539304 C 190.020348 451.099863 182.946521 449.331406 175.996075 447.233934 C 169.045629 445.136462 162.177436 442.668848 155.473751 439.872219 C 148.72894 437.116717 142.189762 433.991072 135.773966 430.577539 C 129.317043 427.12288 123.10688 423.380332 117.061226 419.349896 C 111.015572 415.319459 105.175552 410.960008 99.541166 406.353795 C 93.906781 401.747582 88.519157 396.853481 83.378294 391.712618 C 78.237432 386.571756 73.343331 381.184132 68.737118 375.549746 C 64.130905 369.956488 59.771453 364.116468 55.741017 358.029687 C 51.710581 351.984032 47.968033 345.77387 44.5545 339.358074 C 41.09984 332.942277 38.015323 326.361973 35.218694 319.617161 C 32.422064 312.913476 29.995577 306.045284 27.856978 299.094838 C 25.759506 292.144392 23.99105 285.070565 22.551608 277.955611 C 21.153294 270.79953 20.083994 263.602322 19.384837 256.363988 C 18.644553 249.125653 18.315537 241.887319 18.315537 234.607857 C 18.315537 227.328396 18.644553 220.048935 19.384837 212.8106 C 20.083994 205.572265 21.153294 198.375058 22.551608 191.260104 C 23.99105 184.104023 25.759506 177.071323 27.856978 170.07975 C 29.995577 163.129304 32.422064 156.302238 35.218694 149.557427 C 38.015323 142.853742 41.09984 136.273438 44.5545 129.857641 C 47.968033 123.441845 51.710581 117.190556 55.741017 111.144901 C 59.771453 105.099247 64.130905 99.259227 68.737118 93.624842 C 73.343331 88.031583 78.237432 82.643959 83.378294 77.46197 C 88.519157 72.321107 93.906781 67.468133 99.541166 62.820793 C 105.175552 58.21458 111.015572 53.896256 117.061226 49.865819 C 123.10688 45.794256 129.317043 42.051708 135.773966 38.638175 C 142.189762 35.224643 148.72894 32.098998 155.473751 29.302369 C 162.177436 26.546867 169.045629 24.079253 175.996075 21.981781 C 182.946521 19.843182 190.020348 18.074725 197.135302 16.67641 C 204.291383 15.236969 211.48859 14.167669 218.726925 13.468512 C 225.965259 12.769355 233.203594 12.399213 240.483055 12.399213 C 247.762517 12.399213 255.041978 12.769355 262.280313 13.468512 C 269.518647 14.167669 276.715855 15.236969 283.830809 16.67641 C 290.986889 18.074725 298.019589 19.843182 305.011162 21.981781 C 311.961609 24.079253 318.788674 26.546867 325.533486 29.302369 C 332.237171 32.098998 338.817475 35.224643 345.233271 38.638175 C 351.649068 42.051708 357.900357 45.794256 363.946011 49.865819 C 369.991666 53.896256 375.831686 58.21458 381.466071 62.820793 C 387.100456 67.468133 392.48808 72.321107 397.628943 77.46197 C 402.769806 82.643959 407.663907 88.031583 412.27012 93.624842 C 416.876332 99.259227 421.194657 105.099247 425.26622 111.144901 C 429.296656 117.190556 433.039204 123.441845 436.452737 129.857641 C 439.907397 136.273438 442.991914 142.853742 445.788544 149.557427 C 448.585173 156.302238 451.01166 163.129304 453.150259 170.07975 C 455.247731 177.071323 457.016188 184.104023 458.414502 191.260104 C 459.853944 198.375058 460.923243 205.572265 461.6224 212.8106 C 462.362685 220.048935 462.6917 227.328396 462.6917 234.607857 Z M 462.6917 234.607857 " transform="matrix(0.0949804,0,0,0.0949804,1.154914,1.220755)"/></g><g clip-rule="nonzero" clip-path="url(#92b7f606b4)"><path style=" stroke:none;fill-rule:nonzero;fill:#ffffff;fill-opacity:1;" d="M 28.957031 8.628906 C 27.273438 8.933594 26.695312 9.21875 25.726562 9.769531 C 24.691406 10.359375 23.96875 10.976562 23.476562 11.480469 C 21.859375 13.148438 21.5 14.707031 21.195312 15.914062 C 20.738281 17.691406 20.789062 19.363281 20.789062 19.363281 L 20.789062 20.664062 L 17.398438 20.664062 L 17.398438 26.5625 L 20.789062 26.5625 L 20.789062 44.371094 C 21.832031 44.53125 22.90625 44.617188 23.996094 44.617188 C 25.613281 44.617188 27.1875 44.4375 28.699219 44.09375 L 28.699219 26.5625 L 33.855469 26.5625 L 33.855469 20.664062 L 28.699219 20.664062 L 28.699219 19.410156 C 28.699219 19.410156 28.699219 19.179688 28.699219 19.152344 C 28.699219 19.125 28.699219 19.085938 28.699219 19.058594 C 28.699219 18.800781 28.707031 18.421875 28.765625 18.089844 C 28.90625 17.226562 29.203125 16.550781 29.695312 15.953125 C 30.265625 15.269531 30.929688 14.972656 31.671875 14.859375 C 33.503906 14.574219 35.035156 15.210938 35.035156 15.210938 L 35.320312 9.007812 C 35.320312 9.007812 34.171875 8.640625 32.269531 8.503906 C 30.929688 8.410156 29.742188 8.488281 28.957031 8.628906 Z M 28.957031 8.628906 "/></g><g clip-rule="nonzero" clip-path="url(#d10659f652)"><path style="fill:none;stroke-width:1;stroke-linecap:butt;stroke-linejoin:miter;stroke:#ffffff;stroke-opacity:1;stroke-miterlimit:10;" d="M 292.714219 77.996619 C 274.988525 81.204518 268.901744 84.206781 258.702272 90.005674 C 247.803644 96.215836 240.195167 102.713887 235.013177 108.019257 C 217.98664 125.580444 214.202966 141.990077 210.995067 154.698289 C 206.18322 173.411029 206.71787 191.013343 206.71787 191.013343 L 206.71787 204.708601 L 171.01972 204.708601 L 171.01972 266.810221 L 206.71787 266.810221 L 206.71787 454.307761 C 217.698752 455.993964 229.00865 456.898756 240.483055 456.898756 C 257.509592 456.898756 274.083733 455.006918 289.999844 451.387751 L 289.999844 266.810221 L 344.287353 266.810221 L 344.287353 204.708601 L 289.999844 204.708601 L 289.999844 191.506865 C 289.999844 191.506865 289.999844 189.080378 289.999844 188.79249 C 289.999844 188.504602 289.999844 188.093333 289.999844 187.805444 C 289.999844 185.091069 290.082097 181.10176 290.699001 177.605973 C 292.179569 168.516928 295.305214 161.401974 300.487203 155.109558 C 306.491731 147.912351 313.483304 144.786706 321.297415 143.594026 C 340.585932 140.591762 356.707677 147.295447 356.707677 147.295447 L 359.70994 81.985929 C 359.70994 81.985929 347.618632 78.12 327.589831 76.680559 C 313.483304 75.693513 300.980726 76.516051 292.714219 77.996619 Z M 292.714219 77.996619 " transform="matrix(0.0949804,0,0,0.0949804,1.154914,1.220755)"/></g></g></svg>