<svg xmlns="http://www.w3.org/2000/svg" xmlns:xlink="http://www.w3.org/1999/xlink" width="64" zoomAndPan="magnify" viewBox="0 0 48 48" height="64" preserveAspectRatio="xMidYMid meet" version="1.2"><defs><clipPath id="7c1ef1574f"><path d="M 2.046875 1.308594 L 46.128906 1.308594 L 46.128906 45.390625 L 2.046875 45.390625 Z M 2.046875 1.308594 "/></clipPath><clipPath id="06eb48b1c9"><path d="M 2.046875 1.308594 L 46.128906 1.308594 L 46.128906 45.390625 L 2.046875 45.390625 Z M 2.046875 1.308594 "/></clipPath><clipPath id="89ccb3ff65"><path d="M 24.089844 45.308594 C 23.9375 45.308594 23.785156 45.308594 23.632812 45.304688 C 23.511719 45.300781 23.398438 45.296875 23.28125 45.292969 C 23.195312 45.292969 23.109375 45.285156 23.023438 45.285156 C 22.953125 45.28125 22.886719 45.277344 22.820312 45.273438 C 22.761719 45.269531 22.703125 45.265625 22.644531 45.261719 C 22.589844 45.257812 22.535156 45.253906 22.480469 45.25 C 22.429688 45.246094 22.382812 45.246094 22.332031 45.238281 C 22.285156 45.238281 22.242188 45.234375 22.195312 45.226562 C 22.152344 45.226562 22.109375 45.222656 22.0625 45.214844 C 22.023438 45.214844 21.984375 45.210938 21.945312 45.207031 C 21.902344 45.203125 21.867188 45.199219 21.828125 45.195312 C 21.789062 45.191406 21.753906 45.1875 21.714844 45.183594 C 21.675781 45.179688 21.640625 45.175781 21.609375 45.171875 C 21.574219 45.167969 21.539062 45.164062 21.5 45.160156 C 21.46875 45.15625 21.433594 45.152344 21.402344 45.148438 C 21.371094 45.144531 21.339844 45.140625 21.304688 45.136719 C 21.277344 45.132812 21.242188 45.128906 21.210938 45.121094 C 21.179688 45.121094 21.152344 45.117188 21.121094 45.109375 C 21.09375 45.109375 21.0625 45.105469 21.03125 45.097656 C 21.003906 45.09375 20.972656 45.09375 20.941406 45.085938 C 20.914062 45.082031 20.886719 45.078125 20.859375 45.074219 C 20.832031 45.070312 20.804688 45.066406 20.777344 45.0625 C 20.75 45.058594 20.722656 45.054688 20.691406 45.050781 C 20.667969 45.046875 20.640625 45.042969 20.613281 45.039062 C 20.589844 45.03125 20.566406 45.027344 20.539062 45.027344 C 20.511719 45.019531 20.484375 45.015625 20.460938 45.011719 C 20.433594 45.007812 20.410156 45.003906 20.382812 45 C 20.359375 44.996094 20.335938 44.992188 20.308594 44.988281 C 20.285156 44.984375 20.261719 44.980469 20.238281 44.972656 C 20.210938 44.96875 20.1875 44.96875 20.164062 44.960938 C 20.140625 44.957031 20.117188 44.953125 20.097656 44.949219 C 20.074219 44.945312 20.046875 44.941406 20.023438 44.9375 C 20 44.933594 19.976562 44.925781 19.957031 44.921875 C 19.933594 44.921875 19.914062 44.914062 19.890625 44.910156 C 19.867188 44.90625 19.84375 44.902344 19.824219 44.898438 C 19.800781 44.894531 19.777344 44.890625 19.757812 44.886719 C 19.734375 44.878906 19.714844 44.875 19.691406 44.875 C 19.671875 44.867188 19.648438 44.863281 19.628906 44.859375 C 19.605469 44.855469 19.585938 44.851562 19.5625 44.84375 C 19.542969 44.84375 19.519531 44.835938 19.5 44.832031 C 19.480469 44.828125 19.460938 44.824219 19.4375 44.820312 C 19.417969 44.816406 19.398438 44.808594 19.378906 44.808594 C 19.355469 44.804688 19.335938 44.796875 19.316406 44.792969 C 19.296875 44.789062 19.277344 44.785156 19.257812 44.78125 C 19.238281 44.777344 19.21875 44.773438 19.199219 44.769531 C 19.179688 44.761719 19.160156 44.757812 19.140625 44.753906 C 19.121094 44.75 19.101562 44.742188 19.082031 44.738281 C 19.0625 44.738281 19.046875 44.730469 19.027344 44.726562 C 19.007812 44.722656 18.988281 44.71875 18.96875 44.714844 C 18.949219 44.707031 18.929688 44.703125 18.914062 44.699219 C 18.894531 44.695312 18.875 44.691406 18.859375 44.6875 C 18.839844 44.683594 18.820312 44.679688 18.804688 44.671875 C 18.785156 44.667969 18.765625 44.664062 18.75 44.660156 C 18.730469 44.65625 18.710938 44.648438 18.695312 44.644531 C 18.675781 44.644531 18.65625 44.636719 18.640625 44.632812 C 18.621094 44.628906 18.605469 44.625 18.589844 44.621094 C 18.570312 44.613281 18.550781 44.609375 18.535156 44.605469 C 18.515625 44.601562 18.5 44.597656 18.484375 44.59375 C 18.464844 44.589844 18.449219 44.585938 18.433594 44.578125 C 18.414062 44.574219 18.398438 44.570312 18.378906 44.566406 C 18.363281 44.5625 18.347656 44.554688 18.328125 44.550781 C 18.3125 44.546875 18.296875 44.542969 18.28125 44.539062 C 18.261719 44.535156 18.246094 44.53125 18.230469 44.527344 C 18.214844 44.519531 18.195312 44.515625 18.179688 44.511719 C 18.164062 44.507812 18.148438 44.503906 18.132812 44.496094 C 18.117188 44.492188 18.097656 44.488281 18.082031 44.484375 C 18.066406 44.476562 18.050781 44.472656 18.035156 44.472656 C 18.019531 44.464844 18 44.460938 17.988281 44.457031 C 17.96875 44.453125 17.953125 44.449219 17.9375 44.441406 C 17.921875 44.4375 17.90625 44.433594 17.890625 44.429688 C 17.875 44.425781 17.859375 44.417969 17.84375 44.414062 C 17.828125 44.410156 17.8125 44.40625 17.796875 44.402344 C 8.6875 41.703125 2.042969 33.296875 2.042969 23.347656 C 2.042969 11.21875 11.914062 1.390625 24.089844 1.390625 C 36.265625 1.390625 46.132812 11.21875 46.132812 23.347656 C 46.132812 33.285156 39.503906 41.683594 30.410156 44.390625 C 30.394531 44.394531 30.382812 44.402344 30.367188 44.40625 C 30.347656 44.410156 30.335938 44.414062 30.316406 44.417969 C 30.304688 44.425781 30.285156 44.429688 30.273438 44.433594 C 30.257812 44.4375 30.242188 44.441406 30.226562 44.449219 C 30.207031 44.449219 30.195312 44.453125 30.175781 44.460938 C 30.164062 44.464844 30.148438 44.46875 30.132812 44.472656 C 30.117188 44.476562 30.097656 44.484375 30.082031 44.488281 C 30.066406 44.492188 30.050781 44.496094 30.035156 44.5 C 30.019531 44.503906 30 44.507812 29.988281 44.515625 C 29.96875 44.519531 29.953125 44.523438 29.9375 44.527344 C 29.921875 44.53125 29.902344 44.539062 29.886719 44.542969 C 29.871094 44.546875 29.855469 44.550781 29.835938 44.554688 C 29.820312 44.558594 29.804688 44.5625 29.789062 44.566406 C 29.769531 44.574219 29.753906 44.578125 29.738281 44.582031 C 29.722656 44.585938 29.703125 44.589844 29.6875 44.59375 C 29.667969 44.597656 29.652344 44.601562 29.632812 44.609375 C 29.617188 44.613281 29.601562 44.617188 29.582031 44.621094 C 29.566406 44.625 29.546875 44.632812 29.53125 44.632812 C 29.515625 44.636719 29.496094 44.644531 29.476562 44.648438 C 29.460938 44.652344 29.441406 44.65625 29.421875 44.660156 C 29.40625 44.667969 29.386719 44.671875 29.367188 44.675781 C 29.351562 44.679688 29.332031 44.683594 29.3125 44.6875 C 29.296875 44.691406 29.277344 44.695312 29.257812 44.703125 C 29.242188 44.707031 29.222656 44.710938 29.203125 44.714844 C 29.1875 44.71875 29.167969 44.722656 29.148438 44.726562 C 29.128906 44.730469 29.113281 44.738281 29.09375 44.738281 C 29.074219 44.742188 29.054688 44.75 29.035156 44.753906 C 29.015625 44.757812 28.996094 44.761719 28.976562 44.769531 C 28.957031 44.773438 28.9375 44.777344 28.917969 44.78125 C 28.898438 44.785156 28.878906 44.789062 28.859375 44.792969 C 28.839844 44.796875 28.820312 44.804688 28.800781 44.808594 C 28.78125 44.808594 28.761719 44.816406 28.742188 44.820312 C 28.71875 44.824219 28.699219 44.828125 28.675781 44.832031 C 28.660156 44.835938 28.636719 44.839844 28.617188 44.84375 C 28.59375 44.851562 28.574219 44.855469 28.550781 44.859375 C 28.53125 44.863281 28.511719 44.867188 28.488281 44.871094 C 28.46875 44.875 28.445312 44.878906 28.425781 44.886719 C 28.402344 44.886719 28.378906 44.890625 28.359375 44.898438 C 28.335938 44.902344 28.316406 44.90625 28.292969 44.910156 C 28.269531 44.914062 28.25 44.917969 28.226562 44.921875 C 28.203125 44.925781 28.183594 44.933594 28.160156 44.933594 C 28.136719 44.9375 28.113281 44.945312 28.089844 44.949219 C 28.066406 44.953125 28.042969 44.957031 28.019531 44.960938 C 27.996094 44.964844 27.972656 44.96875 27.949219 44.972656 C 27.921875 44.976562 27.898438 44.980469 27.875 44.984375 C 27.851562 44.992188 27.824219 44.992188 27.800781 44.996094 C 27.777344 45.003906 27.753906 45.007812 27.726562 45.011719 C 27.699219 45.015625 27.675781 45.019531 27.648438 45.023438 C 27.625 45.027344 27.597656 45.03125 27.574219 45.035156 C 27.546875 45.039062 27.515625 45.046875 27.492188 45.050781 C 27.464844 45.054688 27.4375 45.058594 27.410156 45.0625 C 27.382812 45.066406 27.355469 45.070312 27.328125 45.074219 C 27.300781 45.078125 27.269531 45.082031 27.242188 45.085938 C 27.210938 45.089844 27.183594 45.09375 27.15625 45.097656 C 27.128906 45.101562 27.097656 45.105469 27.066406 45.109375 C 27.035156 45.117188 27.003906 45.117188 26.972656 45.121094 C 26.941406 45.128906 26.910156 45.128906 26.878906 45.132812 C 26.847656 45.140625 26.816406 45.144531 26.78125 45.144531 C 26.75 45.152344 26.714844 45.15625 26.675781 45.160156 C 26.644531 45.164062 26.609375 45.167969 26.574219 45.167969 C 26.539062 45.175781 26.5 45.179688 26.464844 45.183594 C 26.425781 45.1875 26.386719 45.191406 26.347656 45.195312 C 26.3125 45.199219 26.269531 45.203125 26.230469 45.207031 C 26.1875 45.210938 26.144531 45.214844 26.101562 45.21875 C 26.058594 45.222656 26.011719 45.226562 25.964844 45.230469 C 25.917969 45.234375 25.871094 45.238281 25.824219 45.242188 C 25.769531 45.246094 25.714844 45.25 25.660156 45.253906 C 25.601562 45.257812 25.542969 45.261719 25.488281 45.265625 C 25.417969 45.269531 25.351562 45.273438 25.285156 45.277344 C 25.199219 45.28125 25.117188 45.285156 25.03125 45.289062 C 24.914062 45.292969 24.796875 45.296875 24.679688 45.300781 C 24.484375 45.304688 24.289062 45.308594 24.089844 45.308594 Z M 15.539062 17.914062 C 15.363281 17.914062 15.199219 17.945312 15.046875 18.011719 C 14.890625 18.078125 14.746094 18.167969 14.628906 18.289062 C 14.507812 18.40625 14.410156 18.546875 14.347656 18.703125 C 14.289062 18.855469 14.246094 19.019531 14.246094 19.195312 L 14.246094 28.925781 C 14.246094 29.101562 14.289062 29.261719 14.347656 29.414062 C 14.410156 29.574219 14.507812 29.714844 14.628906 29.835938 C 14.746094 29.953125 14.890625 30.046875 15.046875 30.117188 C 15.199219 30.175781 15.363281 30.210938 15.539062 30.210938 L 32.636719 30.210938 C 32.808594 30.210938 32.976562 30.175781 33.128906 30.117188 C 33.289062 30.046875 33.429688 29.953125 33.550781 29.835938 C 33.78125 29.601562 33.925781 29.28125 33.925781 28.925781 L 33.925781 19.195312 C 33.925781 19.027344 33.890625 18.855469 33.828125 18.703125 C 33.757812 18.546875 33.664062 18.40625 33.550781 18.289062 C 33.3125 18.054688 32.988281 17.914062 32.636719 17.914062 L 30.675781 17.914062 C 30.621094 17.886719 30.566406 17.851562 30.511719 17.816406 C 30.457031 17.785156 30.402344 17.742188 30.351562 17.699219 C 30.304688 17.65625 30.261719 17.617188 30.222656 17.5625 C 30.183594 17.523438 30.148438 17.476562 30.121094 17.429688 L 29.964844 17.179688 C 29.910156 17.085938 29.832031 16.996094 29.746094 16.90625 C 29.65625 16.824219 29.546875 16.75 29.433594 16.691406 C 29.320312 16.621094 29.203125 16.570312 29.082031 16.535156 C 28.960938 16.503906 28.84375 16.484375 28.738281 16.484375 L 26.015625 16.484375 C 25.90625 16.484375 25.789062 16.503906 25.667969 16.535156 C 25.550781 16.570312 25.425781 16.621094 25.3125 16.683594 C 25.195312 16.742188 25.085938 16.8125 24.996094 16.898438 C 24.898438 16.976562 24.820312 17.066406 24.757812 17.15625 L 24.5625 17.445312 C 24.53125 17.492188 24.496094 17.535156 24.457031 17.574219 L 24.457031 17.582031 C 24.417969 17.621094 24.371094 17.667969 24.320312 17.703125 C 24.269531 17.746094 24.214844 17.785156 24.15625 17.824219 C 24.101562 17.859375 24.042969 17.886719 23.984375 17.914062 L 18.304688 17.914062 C 18.269531 17.898438 18.230469 17.882812 18.203125 17.859375 C 18.171875 17.839844 18.140625 17.816406 18.125 17.796875 L 18.078125 17.734375 L 18.0625 17.671875 C 18.0625 17.597656 18.035156 17.53125 17.984375 17.476562 C 17.9375 17.417969 17.875 17.375 17.800781 17.332031 C 17.722656 17.292969 17.632812 17.265625 17.53125 17.242188 C 17.433594 17.222656 17.332031 17.210938 17.222656 17.210938 L 16.601562 17.210938 C 16.492188 17.210938 16.386719 17.222656 16.289062 17.242188 C 16.1875 17.265625 16.09375 17.292969 16.019531 17.332031 C 15.941406 17.375 15.878906 17.417969 15.835938 17.476562 C 15.785156 17.53125 15.753906 17.597656 15.753906 17.671875 L 15.75 17.746094 L 15.726562 17.816406 L 15.691406 17.882812 L 15.671875 17.914062 Z M 26.53125 28.855469 C 25.878906 28.855469 25.253906 28.726562 24.691406 28.496094 C 24.101562 28.253906 23.574219 27.898438 23.125 27.449219 C 22.683594 27.011719 22.320312 26.480469 22.078125 25.890625 C 21.84375 25.328125 21.714844 24.710938 21.714844 24.0625 C 21.714844 23.414062 21.84375 22.792969 22.078125 22.226562 C 22.328125 21.640625 22.683594 21.117188 23.125 20.667969 C 23.574219 20.230469 24.101562 19.871094 24.691406 19.628906 C 25.253906 19.394531 25.878906 19.261719 26.53125 19.261719 C 27.179688 19.261719 27.800781 19.394531 28.367188 19.628906 C 28.957031 19.871094 29.492188 20.230469 29.933594 20.667969 C 30.375 21.117188 30.738281 21.640625 30.980469 22.226562 C 31.214844 22.792969 31.34375 23.414062 31.34375 24.0625 C 31.34375 24.710938 31.214844 25.328125 30.980469 25.890625 C 30.738281 26.480469 30.375 27.011719 29.933594 27.449219 C 29.492188 27.898438 28.957031 28.253906 28.367188 28.496094 C 27.800781 28.726562 27.179688 28.855469 26.53125 28.855469 Z M 25.0625 20.625 C 24.609375 20.816406 24.195312 21.09375 23.855469 21.433594 C 23.511719 21.777344 23.234375 22.1875 23.046875 22.640625 C 22.863281 23.082031 22.761719 23.558594 22.761719 24.0625 C 22.761719 24.566406 22.863281 25.046875 23.046875 25.480469 C 23.234375 25.9375 23.511719 26.351562 23.855469 26.6875 C 24.195312 27.03125 24.609375 27.308594 25.0625 27.496094 C 25.503906 27.675781 25.988281 27.777344 26.492188 27.777344 C 26.996094 27.777344 27.480469 27.675781 27.921875 27.496094 C 28.378906 27.308594 28.789062 27.03125 29.132812 26.6875 C 29.472656 26.351562 29.753906 25.9375 29.945312 25.484375 C 30.125 25.046875 30.222656 24.566406 30.222656 24.0625 C 30.222656 23.558594 30.125 23.082031 29.945312 22.640625 C 29.753906 22.1875 29.472656 21.777344 29.132812 21.433594 C 28.789062 21.09375 28.378906 20.816406 27.921875 20.625 C 27.480469 20.445312 26.996094 20.347656 26.492188 20.347656 C 25.988281 20.347656 25.503906 20.445312 25.070312 20.625 Z M 16.578125 28.714844 L 16.5 28.710938 C 16.464844 28.703125 16.441406 28.699219 16.417969 28.691406 L 16.414062 28.691406 L 16.34375 28.660156 L 16.277344 28.617188 L 16.265625 28.605469 L 16.226562 28.570312 L 16.191406 28.523438 L 16.175781 28.464844 L 16.164062 28.417969 L 16.164062 22.503906 L 16.175781 22.453125 L 16.175781 22.449219 L 16.191406 22.398438 L 16.226562 22.351562 L 16.261719 22.3125 L 16.28125 22.296875 L 16.34375 22.253906 L 16.414062 22.226562 L 16.417969 22.226562 C 16.441406 22.222656 16.464844 22.214844 16.5 22.210938 L 16.578125 22.207031 L 16.664062 22.210938 L 16.742188 22.226562 L 16.816406 22.253906 L 16.878906 22.296875 L 16.933594 22.351562 L 16.960938 22.398438 L 16.988281 22.449219 L 16.988281 22.453125 L 16.992188 22.503906 L 16.992188 28.417969 L 16.988281 28.464844 L 16.960938 28.523438 L 16.933594 28.570312 L 16.894531 28.605469 L 16.878906 28.617188 L 16.816406 28.660156 L 16.742188 28.691406 L 16.664062 28.710938 Z M 16.902344 20.535156 L 16.445312 20.535156 C 16.351562 20.535156 16.253906 20.515625 16.175781 20.488281 C 16.085938 20.457031 16.003906 20.414062 15.941406 20.359375 C 15.878906 20.300781 15.824219 20.242188 15.789062 20.167969 C 15.761719 20.101562 15.738281 20.023438 15.738281 19.949219 C 15.738281 19.867188 15.761719 19.792969 15.789062 19.726562 C 15.824219 19.652344 15.878906 19.589844 15.941406 19.535156 C 16.003906 19.480469 16.085938 19.433594 16.175781 19.40625 C 16.253906 19.375 16.351562 19.359375 16.445312 19.359375 L 16.902344 19.359375 C 16.996094 19.359375 17.089844 19.375 17.171875 19.40625 C 17.257812 19.433594 17.339844 19.480469 17.40625 19.535156 C 17.464844 19.589844 17.519531 19.652344 17.550781 19.726562 C 17.589844 19.792969 17.605469 19.867188 17.605469 19.949219 C 17.605469 20.023438 17.589844 20.101562 17.550781 20.167969 C 17.519531 20.242188 17.464844 20.300781 17.40625 20.359375 C 17.339844 20.414062 17.257812 20.457031 17.171875 20.488281 C 17.089844 20.515625 16.996094 20.535156 16.902344 20.535156 Z M 16.902344 20.535156 "/></clipPath><radialGradient gradientTransform="matrix(1.00572,0,0,-0.99428,-957.643345,-259.193713)" id="727d795d8b" gradientUnits="userSpaceOnUse" r="632.458756" cx="1018.740146" fx="1018.740146" cy="-204.563249" fy="-204.563249"><stop style="stop-color:#a67d2b;stop-opacity:1;" offset="0"/><stop style="stop-color:#a57c2b;stop-opacity:1;" offset="0.5"/><stop style="stop-color:#a57c2b;stop-opacity:1;" offset="0.625"/><stop style="stop-color:#a47c2b;stop-opacity:1;" offset="0.71875"/><stop style="stop-color:#a37c2b;stop-opacity:1;" offset="0.789062"/><stop style="stop-color:#a37b2b;stop-opacity:1;" offset="0.839844"/><stop style="stop-color:#a27b2b;stop-opacity:1;" offset="0.878906"/><stop style="stop-color:#a17a2b;stop-opacity:1;" offset="0.90625"/><stop style="stop-color:#a0792b;stop-opacity:1;" offset="0.953125"/><stop style="stop-color:#a0792b;stop-opacity:1;" offset="1"/></radialGradient></defs><g id="f6fb9a3892"><g clip-rule="nonzero" clip-path="url(#7c1ef1574f)"><path style=" stroke:none;fill-rule:evenodd;fill:#a67d2b;fill-opacity:1;" d="M 24.089844 1.390625 C 36.265625 1.390625 46.132812 11.21875 46.132812 23.347656 C 46.132812 35.472656 36.265625 45.308594 24.089844 45.308594 C 11.914062 45.308594 2.042969 35.472656 2.042969 23.347656 C 2.042969 11.21875 11.914062 1.390625 24.089844 1.390625 Z M 24.089844 1.390625 "/></g><g clip-rule="nonzero" clip-path="url(#06eb48b1c9)"><g clip-rule="evenodd" clip-path="url(#89ccb3ff65)"><path style=" stroke:none;fill-rule:nonzero;fill:url(#727d795d8b);" d="M 2.046875 45.308594 L 2.046875 1.390625 L 46.128906 1.390625 L 46.128906 45.308594 Z M 2.046875 45.308594 "/></g></g><path style=" stroke:none;fill-rule:nonzero;fill:#fefefe;fill-opacity:1;" d="M 32.125 27.984375 C 32.125 29.8125 30.625 31.292969 28.777344 31.292969 L 19.398438 31.292969 C 17.550781 31.292969 16.050781 29.8125 16.050781 27.984375 L 16.050781 18.714844 C 16.050781 16.882812 17.550781 15.402344 19.398438 15.402344 L 28.777344 15.402344 C 30.625 15.402344 32.125 16.882812 32.125 18.714844 Z M 29.113281 13.746094 L 19.0625 13.746094 C 16.476562 13.746094 14.375 15.820312 14.375 18.382812 L 14.375 28.316406 C 14.375 30.875 16.476562 32.949219 19.0625 32.949219 L 29.113281 32.949219 C 31.703125 32.949219 33.800781 30.875 33.800781 28.316406 L 33.800781 18.382812 C 33.800781 15.820312 31.703125 13.746094 29.113281 13.746094 Z M 29.113281 13.746094 "/><path style=" stroke:none;fill-rule:nonzero;fill:#fefefe;fill-opacity:1;" d="M 24.097656 26.660156 C 22.253906 26.660156 20.75 25.171875 20.75 23.347656 C 20.75 21.523438 22.253906 20.035156 24.097656 20.035156 C 25.941406 20.035156 27.449219 21.523438 27.449219 23.347656 C 27.449219 25.171875 25.941406 26.660156 24.097656 26.660156 Z M 24.097656 18.382812 C 21.324219 18.382812 19.074219 20.609375 19.074219 23.347656 C 19.074219 26.089844 21.324219 28.316406 24.097656 28.316406 C 26.871094 28.316406 29.121094 26.089844 29.121094 23.347656 C 29.121094 20.609375 26.871094 18.382812 24.097656 18.382812 Z M 24.097656 18.382812 "/><path style=" stroke:none;fill-rule:evenodd;fill:#ffffff;fill-opacity:1;" d="M 29.121094 17.332031 L 29.738281 17.332031 C 29.871094 17.332031 29.984375 17.378906 30.078125 17.46875 C 30.171875 17.5625 30.21875 17.675781 30.21875 17.804688 L 30.21875 18.417969 C 30.21875 18.550781 30.171875 18.664062 30.078125 18.753906 C 29.984375 18.847656 29.871094 18.894531 29.738281 18.894531 L 29.121094 18.894531 C 28.988281 18.894531 28.875 18.847656 28.78125 18.753906 C 28.6875 18.664062 28.640625 18.550781 28.640625 18.417969 L 28.640625 17.804688 C 28.640625 17.675781 28.6875 17.5625 28.78125 17.46875 C 28.875 17.378906 28.988281 17.332031 29.121094 17.332031 Z M 29.121094 17.332031 "/></g></svg>